<?xml version="1.0" encoding="UTF-8"?>
<svg id="Layer_2" data-name="Layer 2" xmlns="http://www.w3.org/2000/svg" viewBox="0 0 271.65 72.7">
  <defs>
    <style>
      .cls-1 {
        fill: #231f20;
      }

      .cls-2 {
        isolation: isolate;
      }

      .cls-3 {
        fill: #fec15f;
      }

      .cls-4 {
        fill: #328bcb;
      }

      .cls-5 {
        fill: #ec9559;
      }
    </style>
  </defs>
  <g id="Layer_1-2" data-name="Layer 1">
    <rect class="cls-5" x="14.42" y="10.52" width="30.76" height="30.38"/>
    <polygon class="cls-4" points="45.18 8.72 14.42 8.72 26.3 0 57.07 0 45.18 8.72"/>
    <g class="cls-2">
      <path class="cls-1" d="M79.3,15.65h4.57v31.22c0,2.79-.61,5.25-1.84,7.36-1.23,2.12-2.94,3.73-5.14,4.85-2.2,1.12-4.72,1.68-7.55,1.68-3.13,0-5.86-.66-8.19-1.97-2.33-1.31-4.17-3.24-5.52-5.78l3.68-2.22c1.23,2.07,2.62,3.55,4.19,4.44,1.56.89,3.55,1.33,5.97,1.33,2.96,0,5.34-.83,7.14-2.47,1.8-1.65,2.7-4.06,2.7-7.23V15.65Z"/>
      <path class="cls-1" d="M112.81,29.8c2.41,1.52,4.27,3.56,5.58,6.12,1.31,2.56,1.97,5.32,1.97,8.28,0,.21-.04.78-.13,1.71h-27.86c.21,2.07.86,3.93,1.94,5.58,1.08,1.65,2.54,2.96,4.38,3.93,1.84.97,3.94,1.46,6.31,1.46,2.16,0,4.2-.5,6.12-1.49,1.92-.99,3.33-2.23,4.22-3.71l3.43,2.03c-1.4,2.2-3.29,3.92-5.68,5.17-2.39,1.25-5.11,1.87-8.15,1.87-3.3,0-6.23-.72-8.79-2.16-2.56-1.44-4.56-3.43-6-5.97-1.44-2.54-2.16-5.37-2.16-8.5s.7-5.9,2.09-8.44c1.4-2.54,3.35-4.54,5.87-6,2.52-1.46,5.38-2.19,8.6-2.19s5.84.76,8.25,2.28ZM116.24,42.3c-.42-3.38-1.65-6.05-3.68-8-2.03-1.95-4.7-2.92-8-2.92-2.33,0-4.42.51-6.28,1.52-1.86,1.02-3.31,2.37-4.35,4.06-1.04,1.69-1.58,3.47-1.62,5.33h23.92Z"/>
      <path class="cls-1" d="M132.1,55.09c.76.83,2.03,1.24,3.81,1.24.55,0,1.67-.08,3.36-.25v3.93c-1.78.21-3.19.32-4.25.32-2.83,0-4.93-.71-6.28-2.13-1.35-1.42-2.03-3.9-2.03-7.46v-18.53h-7.49v-3.93h7.49v-9.07l4.25-1.59v10.66h8.19v3.93h-8.19v18.34c0,2.2.38,3.71,1.14,4.54Z"/>
      <path class="cls-1" d="M167.89,29.77c2.45,1.46,4.37,3.46,5.74,6,1.38,2.54,2.06,5.33,2.06,8.38s-.69,5.84-2.06,8.38c-1.38,2.54-3.29,4.55-5.74,6.03-2.46,1.48-5.21,2.22-8.25,2.22-2.54,0-4.92-.59-7.14-1.78-2.22-1.18-4.05-2.81-5.49-4.89v18.59h-4.25V28.28h4.25v5.9c1.44-2.03,3.27-3.64,5.49-4.82,2.22-1.18,4.6-1.78,7.14-1.78,3.04,0,5.79.73,8.25,2.19ZM165.42,54.9c1.86-1.08,3.33-2.56,4.41-4.44,1.08-1.88,1.62-3.99,1.62-6.31s-.54-4.44-1.62-6.35c-1.08-1.9-2.55-3.4-4.41-4.47s-3.91-1.62-6.15-1.62-4.31.55-6.19,1.65c-1.88,1.1-3.36,2.59-4.44,4.47-1.08,1.88-1.62,3.99-1.62,6.31s.54,4.43,1.62,6.31c1.08,1.88,2.56,3.36,4.44,4.44,1.88,1.08,3.94,1.62,6.19,1.62s4.29-.54,6.15-1.62Z"/>
      <path class="cls-1" d="M205.52,28.28h4.25v31.73h-4.25v-5.9c-1.44,2.07-3.27,3.7-5.49,4.89-2.22,1.18-4.62,1.78-7.2,1.78-3.05,0-5.8-.73-8.25-2.19-2.45-1.46-4.37-3.46-5.74-6-1.38-2.54-2.06-5.33-2.06-8.38s.69-5.9,2.06-8.44c1.37-2.54,3.29-4.54,5.74-6,2.45-1.46,5.2-2.19,8.25-2.19,2.58,0,4.97.6,7.17,1.81,2.2,1.21,4.04,2.85,5.52,4.92v-6.03ZM199.43,54.99c1.86-1.1,3.33-2.6,4.41-4.51,1.08-1.9,1.62-4.02,1.62-6.35s-.54-4.43-1.62-6.31c-1.08-1.88-2.55-3.36-4.41-4.44-1.86-1.08-3.91-1.62-6.16-1.62s-4.29.55-6.16,1.65c-1.86,1.1-3.33,2.59-4.41,4.47-1.08,1.88-1.62,3.99-1.62,6.31s.54,4.43,1.62,6.31c1.08,1.88,2.55,3.38,4.41,4.47,1.86,1.1,3.91,1.65,6.16,1.65s4.29-.55,6.16-1.65Z"/>
      <path class="cls-1" d="M242.14,53.85c-1.57,2.16-3.51,3.85-5.84,5.08-2.33,1.23-4.84,1.84-7.55,1.84-3,0-5.79-.74-8.35-2.22s-4.58-3.5-6.06-6.06c-1.48-2.56-2.22-5.34-2.22-8.34s.74-5.76,2.22-8.28c1.48-2.52,3.5-4.52,6.06-6,2.56-1.48,5.34-2.22,8.35-2.22,2.67,0,5.16.6,7.49,1.81,2.33,1.21,4.27,2.85,5.84,4.92l-3.55,2.35c-1.19-1.52-2.62-2.72-4.32-3.59-1.69-.87-3.51-1.3-5.46-1.3-2.24,0-4.31.55-6.19,1.65-1.88,1.1-3.37,2.59-4.47,4.47-1.1,1.88-1.65,3.95-1.65,6.19s.55,4.3,1.65,6.19c1.1,1.88,2.59,3.38,4.47,4.47,1.88,1.1,3.94,1.65,6.19,1.65,1.95,0,3.76-.43,5.46-1.3,1.69-.87,3.13-2.06,4.32-3.58l3.62,2.28Z"/>
      <path class="cls-1" d="M271.65,60.01h-5.46l-11.3-14.28-5.84,6.35v7.93h-4.25V15.58h4.25v30.27l16.12-17.58h5.9l-13.2,14.28,13.77,17.45Z"/>
    </g>
    <polyline class="cls-3" points="12.36 11.4 12.36 40.92 0 40.92"/>
  </g>
</svg>