<?xml version="1.0" encoding="UTF-8"?>
<svg id="Layer_2" xmlns="http://www.w3.org/2000/svg" version="1.1" viewBox="0 0 332 72.7">
  <!-- Generator: Adobe Illustrator 30.0.0, SVG Export Plug-In . SVG Version: 2.1.1 Build 123)  -->
  <defs>
    <style>
      .st0 {
        fill: #231f20;
      }

      .st1, .st2, .st3 {
        isolation: isolate;
      }

      .st4 {
        fill: #fec15f;
      }

      .st5 {
        fill: #328bcb;
      }

      .st2 {
        letter-spacing: 0em;
      }

      .st2, .st3 {
        font-family: THICCCBOI-Regular, THICCCBOI;
        font-size: 21.5px;
      }

      .st6 {
        fill: #ec9559;
      }
    </style>
  </defs>
  <g id="Layer_1-2">
    <rect class="st6" x="14.4" y="10.5" width="30.8" height="30.4"/>
    <polygon class="st5" points="45.2 8.7 14.4 8.7 26.3 0 57.1 0 45.2 8.7"/>
    <g class="st1">
      <path class="st0" d="M79.3,15.6h4.6v31.2c0,2.8-.6,5.2-1.8,7.4-1.2,2.1-2.9,3.7-5.1,4.8s-4.7,1.7-7.6,1.7-5.9-.7-8.2-2-4.2-3.2-5.5-5.8l3.7-2.2c1.2,2.1,2.6,3.5,4.2,4.4,1.6.9,3.5,1.3,6,1.3s5.3-.8,7.1-2.5c1.8-1.7,2.7-4.1,2.7-7.2V15.6h0Z"/>
      <path class="st0" d="M112.8,29.8c2.4,1.5,4.3,3.6,5.6,6.1,1.3,2.6,2,5.3,2,8.3s0,.8-.1,1.7h-27.9c.2,2.1.9,3.9,1.9,5.6s2.5,3,4.4,3.9,3.9,1.5,6.3,1.5,4.2-.5,6.1-1.5c1.9-1,3.3-2.2,4.2-3.7l3.4,2c-1.4,2.2-3.3,3.9-5.7,5.2s-5.1,1.9-8.2,1.9-6.2-.7-8.8-2.2-4.6-3.4-6-6-2.2-5.4-2.2-8.5.7-5.9,2.1-8.4c1.4-2.5,3.3-4.5,5.9-6,2.5-1.5,5.4-2.2,8.6-2.2s5.8.8,8.2,2.3h0s0,0,0,0ZM116.2,42.3c-.4-3.4-1.7-6-3.7-8s-4.7-2.9-8-2.9-4.4.5-6.3,1.5c-1.9,1-3.3,2.4-4.3,4.1-1,1.7-1.6,3.5-1.6,5.3h23.9Z"/>
      <path class="st0" d="M132.1,55.1c.8.8,2,1.2,3.8,1.2s1.7,0,3.4-.2v3.9c-1.8.2-3.2.3-4.2.3-2.8,0-4.9-.7-6.3-2.1-1.3-1.4-2-3.9-2-7.5v-18.5h-7.5v-3.9h7.5v-9.1l4.2-1.6v10.7h8.2v3.9h-8.2v18.3c0,2.2.4,3.7,1.1,4.5Z"/>
      <path class="st0" d="M167.9,29.8c2.4,1.5,4.4,3.5,5.7,6,1.4,2.5,2.1,5.3,2.1,8.4s-.7,5.8-2.1,8.4c-1.4,2.5-3.3,4.5-5.7,6-2.5,1.5-5.2,2.2-8.2,2.2s-4.9-.6-7.1-1.8c-2.2-1.2-4.1-2.8-5.5-4.9v18.6h-4.2V28.3h4.2v5.9c1.4-2,3.3-3.6,5.5-4.8s4.6-1.8,7.1-1.8,5.8.7,8.2,2.2ZM165.4,54.9c1.9-1.1,3.3-2.6,4.4-4.4,1.1-1.9,1.6-4,1.6-6.3s-.5-4.4-1.6-6.3c-1.1-1.9-2.6-3.4-4.4-4.5s-3.9-1.6-6.1-1.6-4.3.6-6.2,1.6-3.4,2.6-4.4,4.5-1.6,4-1.6,6.3.5,4.4,1.6,6.3,2.6,3.4,4.4,4.4c1.9,1.1,3.9,1.6,6.2,1.6s4.3-.5,6.1-1.6h0Z"/>
      <path class="st0" d="M205.5,28.3h4.2v31.7h-4.2v-5.9c-1.4,2.1-3.3,3.7-5.5,4.9-2.2,1.2-4.6,1.8-7.2,1.8s-5.8-.7-8.2-2.2-4.4-3.5-5.7-6c-1.4-2.5-2.1-5.3-2.1-8.4s.7-5.9,2.1-8.4c1.4-2.5,3.3-4.5,5.7-6,2.4-1.5,5.2-2.2,8.2-2.2s5,.6,7.2,1.8,4,2.8,5.5,4.9c0,0,0-6,0-6ZM199.4,55c1.9-1.1,3.3-2.6,4.4-4.5,1.1-1.9,1.6-4,1.6-6.3s-.5-4.4-1.6-6.3-2.6-3.4-4.4-4.4c-1.9-1.1-3.9-1.6-6.2-1.6s-4.3.6-6.2,1.6c-1.9,1.1-3.3,2.6-4.4,4.5s-1.6,4-1.6,6.3.5,4.4,1.6,6.3,2.6,3.4,4.4,4.5c1.9,1.1,3.9,1.7,6.2,1.7s4.3-.5,6.2-1.7c0,0,0,0,0,0Z"/>
      <path class="st0" d="M242.1,53.8c-1.6,2.2-3.5,3.8-5.8,5.1-2.3,1.2-4.8,1.8-7.6,1.8s-5.8-.7-8.4-2.2-4.6-3.5-6.1-6.1-2.2-5.3-2.2-8.3.7-5.8,2.2-8.3,3.5-4.5,6.1-6,5.3-2.2,8.4-2.2,5.2.6,7.5,1.8,4.3,2.8,5.8,4.9l-3.6,2.3c-1.2-1.5-2.6-2.7-4.3-3.6-1.7-.9-3.5-1.3-5.5-1.3s-4.3.5-6.2,1.7c-1.9,1.1-3.4,2.6-4.5,4.5s-1.6,4-1.6,6.2.6,4.3,1.6,6.2c1.1,1.9,2.6,3.4,4.5,4.5,1.9,1.1,3.9,1.7,6.2,1.7s3.8-.4,5.5-1.3c1.7-.9,3.1-2.1,4.3-3.6l3.6,2.3h0Z"/>
      <path class="st0" d="M271.6,60h-5.5l-11.3-14.3-5.8,6.3v7.9h-4.2V15.6h4.2v30.3l16.1-17.6h5.9l-13.2,14.3,13.8,17.5h0Z"/>
    </g>
    <polyline class="st4" points="12.4 11.4 12.4 40.9 0 40.9"/>
  </g>
  <g class="st1">
    <text class="st2" transform="translate(279.2 60.5)"><tspan x="0" y="0">P</tspan></text>
    <text class="st2" transform="translate(290.8 60.5)"><tspan x="0" y="0">R</tspan></text>
    <text class="st3" transform="translate(303.5 60.5)"><tspan x="0" y="0">O</tspan></text>
  </g>
</svg>