<?xml version="1.0" encoding="UTF-8"?>
<svg id="Layer_1" data-name="Layer 1" xmlns="http://www.w3.org/2000/svg" xmlns:xlink="http://www.w3.org/1999/xlink" viewBox="0 0 238.71 120.51">
  <defs>
    <style>
      .cls-1 {
        fill: none;
      }

      .cls-2 {
        fill: #231f20;
      }

      .cls-3 {
        fill: #fff;
      }

      .cls-4 {
        clip-path: url(#clippath);
      }
    </style>
    <clipPath id="clippath">
      <rect class="cls-1" x="-11.41" y="-62.82" width="287.53" height="230.89"/>
    </clipPath>
  </defs>
  <g class="cls-4">
    <g id="FeVhl6">
      <g>
        <path class="cls-3" d="M323.26-3.88v368.27H-167.77V-3.88h491.03ZM209.16,44.05c.24-1.03-.26-2.01-.32-2.93-.21-3.32.41-4.77-2.31-7.27-3.78-3.49-11.05-8.91-15.92-10.36-5.58-1.67-14.71-1.57-20.54-1.05-4.15.37-7.05,2.59-10.76,3.78-2.12.68-4.65.82-6.64,1.71-4.05,1.81-6.95,8.22-9.55,11.78-2.57,3.52-5.81,6.7-8.3,10.26-3.13,4.47-4.91,8.29-1.11,13.11,1.19,1.51,2.69,2.7,4.03,4.01.62.61,3,2.76,3.25,3.26.28.54-.49,2.87-.7,3.64-1.86,6.6-7.67,20.34-11.83,25.58-5.57,7-10.83,8.61-18.55,12.06-6.11,2.73-11.15,7.26-17.32,9.89-19.11,8.14-38.91,4.6-58.5,8.9-17.5,3.84-33.39,14.66-51.1,15.69-17.9,1.04-35.48-1.47-43.51-19.58-5.44-12.27.35-18.98,1.31-31l-.48-2.61c-11.28,12.04-13.32,33.31-2.17,46.08,10.33,11.83,27.27,18.68,43,17.63,1.78-.12,3.87-.78,5.58-.91.92-.07,1.74-.09,2.46.58.51.77-.12,2.43-.52,3.21-1.87,3.6-4.7,6.8-6.29,10.72-2.35,5.77-1.08,13.41-1.38,19.64-1.05,21.67-8.74,47.15-20.59,65.37-2.26,3.47-5.22,7.51-8.33,10.23-2.39,2.09-5.24,3.11-6.2,6.48-1.08,3.82-1.31,9.29-2.03,13.43-1.22,6.99-2.6,14.03-4.07,20.98-1.27,6.02-3.99,12.38-2.08,18.48-.66,0-1.32.04-1.99-.02-6.19-.56-12.65-1.79-18.88-2.46-.36-.04-1.17-.12-1.4.16,1.4,1,3.24,1.62,4.86,2.25,7.37,2.86,15.41,5.78,22.88,8.35,4.55,1.56,14.9,1.39,19.63.29,1.01-.23,2.02-.49,2.96-.9.81-.78-.07-4.4-.4-5.51-.81-2.71-3.76-7.32-6.43-8.42-2.27-.93-4.5.38-5.5-2.24-1.66-4.35-.05-14.98,1.03-19.72,4.71-20.71,18.14-32.8,33.46-46.01,2.07-1.78,4-3.79,6.34-5.26.14.16-.35,1.25-.47,1.54-3.46,8.61-8.24,18.84-14.37,25.82-1.5,1.71-4.95,4.24-5.72,6.03-.22.5-.44,1.16-.48,1.7-.12,1.96,2.41,6.13,3.26,8.2,4.04,9.75,5.66,20.19,9.68,29.9l2.84,5.04-25.66-2.94c.77.6,1.92.89,2.85,1.17,13.58,4.04,32.5,9.02,46.44,7.62.65-.07,4.12-.84,4.37-1.19.89-4.75-4.22-12.13-9.01-12.67-2.18-.25-4.23.29-6.16.3-2.85.02-5.07-3.24-6.28-5.48-5.49-10.14-5.34-23.68.62-33.59,3.46-5.75,9.66-8.7,14.63-12.89,13.73-11.58,23.89-30.42,29.77-47.23,1.72-4.91,3.73-14.49,7.51-17.85,1.53-1.36,4.28-2.23,6.31-2.35,1.68-.1,3.14.48,4.81.32-1.65-2.13-3.81-3.79-6.09-5.2-1.31-.82-2.73-1.41-4.02-2.16-.15-.09-.99-.46-.56-.68,5.26,1.04,10.22,2.92,14.9,5.51,7.99,4.41,15.66,10.34,23.5,15.15,6.79,4.17,13.86,7.88,20.81,11.72.48,2.31.59,4.69.96,7.02,1.55,9.73,4.12,19.57,4.62,29.39.23,4.52.03,9.1.29,13.62.41,7.11,2.53,13.12.24,20.32-.73,2.31-2.74,5.38-2.38,7.8.2,1.37,2.1,2.2,3.09,3.09,1.13,1.02,2.01,1.79,2.16,3.4.24,2.44-.61,5.2.66,7.38,2.61,4.47,2.11,5.68,3.12,10.48.49,2.32,1.36,4.49,2.09,6.73-10.4-1.28-20.81-2.83-31.23-3.71l.31.47c10.98,3.25,22.02,6.32,33.09,9.27,7.59,2.02,14.51,3.01,22.42,2.02,1.72-.22,3.47-.59,5.06-1.28.23-2.69-.54-5.34-1.55-7.81l-1.81-2.98,13.99,2.86c6.76,3.13,18.8,3.79,25.98,2.01.61-.15,1.22-.4,1.78-.69.88-.84-.02-4.28-.47-5.42-1.12-2.84-4.99-7.44-8.11-7.97-1.1-.19-3.07-.31-4.25-.38-1.04-.07-3.77.3-4.34-.3-.47-.49-2.24-4.67-2.68-5.67-2.99-6.84-5.65-14.78-5.21-22.33.2-3.39.53-5.08.31-8.64-.68-10.9-1.62-21.48-.93-32.48.59-9.4,2.69-18.73,3.42-28.12.1-1.31-.12-2.72-.02-4.04.54-7.07,4.94-13.25,7.36-19.85,4.42-12.05,4.9-22.82,3.76-35.47-.59-6.58-2.13-13.24-2.46-19.8-.34-6.75,2.17-10.73,3.88-16.86,2.03-7.31,2.04-14.1,2.96-21.47.91-7.31,6.28-15.15,13.8-16.81.45-.1,2.33-.39,2.69-.37,2.83.13,6.35,5.51,9.24,6.86,3.11,1.46,6.14.02,8.25-2.38,1.77-2,2.05-3.64,1.89-6.3,5.5-2.37,8.17-9.34,9.41-14.86.29-1.27.53-5.1,1.05-5.76.27-.34.92-.51,1.27-.89,1.31-1.43,1.18-4.16.13-5.72-2.35-3.49-9.4-4.05-12.67-1.56-.56.42-2,2.47-2.16,2.47-.32.01-.49-.71-.46-1.07.11-1.25,2.4-3.14,3.63-3.49l3.48-.54c-.53-.52-1.28-.82-1.95-1.14-3.1-1.5-13.41-5.14-15.06-7.21-.37-.47-1.2-1.59,0-1.39-.13.77,2.41,2.87,2.79,2.47Z"/>
        <g>
          <g>
            <path class="cls-3" d="M187.48,70.54c-.3.03-.41-.83-.43-1.03-.84-8.68,1.15-15.22,6.51-22.03,1.93-2.45,4.22-4.77,6.52-6.86l-3.33,5.1c-2.58,4.64-5.21,9.34-7.02,14.35-1.2,3.32-2.24,6.93-2.25,10.47Z"/>
            <path class="cls-3" d="M191.98,13.27c-.33-3.64-2.39-7.04-3.09-10.64-1.04-5.4.45-9.18,6.05-10.47.23-.05.72-.32.86-.04-1.59.86-3.63,2.49-4.39,4.16-.94,2.05-1.12,4.89-.77,7.08.69,4.22,2.75,7.07,2.22,11.7-.06.49-.6,2.96-.77,3.28-.06.11-.29.29-.34.22-.21-.42.22-1.09.22-1.24,0-1.29.11-2.8,0-4.05Z"/>
            <path class="cls-3" d="M186.81,36.56h-3.71c-.21,0-2.24-1.03-2.57-1.25-2.27-1.46-3.43-4.01-4.01-6.57l-.4-4.56c.97,2.45,1.21,5.19,2.71,7.42,1.82,2.71,4.3,3.49,7.22,4.48.29.1.69.04.76.48Z"/>
            <path class="cls-3" d="M178.71,60.86l-1.32-2.39c-3.13-6.54-5.94-13.34-7.01-20.56l3.43,10.19,4.9,12.76Z"/>
            <path class="cls-3" d="M175.11,63.79l-1.69-1.12c-1.66-1.52-3.38-2.9-4.71-4.74-1.51-2.1-2.31-4.43-2.83-6.96.34.05.42.42.57.67,2.51,4.43,4.98,8.55,8.66,12.15Z"/>
            <path class="cls-3" d="M205.71,28.91l-1.47-2.69c-.32-1.87-.29-3.34,1.36-4.51l-.12,5.52.23,1.68Z"/>
            <path class="cls-3" d="M209.76,6.86c.03.3-.51.39-.75.49-2.72,1.1-4.01-.09-4.65-2.74.93.75,1.45,2.01,2.69,2.37,1.03.3,1.71-.17,2.71-.12Z"/>
            <path class="cls-3" d="M210.66,2.14c-1.47,2.1-3.14,1.95-4.93.32-.25-.23-.55-.35-.47-.77,1.02.2,1.96,1.1,3.04,1.14.9.03,1.53-.52,2.36-.69Z"/>
          </g>
          <g>
            <path d="M27.55,226.76c.48.03.97-.01,1.45-.02-1.51-4.4.34-9.08,1.15-13.49.93-5.08,1.8-10.23,2.55-15.34.45-3.02.5-7,1.22-9.81.63-2.47,2.68-3.27,4.38-4.84,2.21-2.04,4.28-5.03,5.86-7.6,8.26-13.49,13.36-32.17,13.7-47.95.1-4.54-.97-10.07.62-14.31,1.08-2.88,3.08-5.26,4.36-7.92.28-.57.7-1.79.32-2.34-.54-.47-1.13-.44-1.8-.38-1.24.13-2.75.65-4.04.77-11.42,1.07-23.88-3.57-31.62-11.98-8.36-9.07-7.29-24.58.68-33.56l.4,1.89c-.46,8.76-4.54,13.75-.35,22.57,6.2,13.02,19.04,14.5,32.03,13.39,12.86-1.09,24.21-9.28,36.86-12.41,14.17-3.51,28.64-1.32,42.38-7.62,4.44-2.03,8.01-5.43,12.41-7.53,5.55-2.66,9.34-3.93,13.26-9.14,2.93-3.89,6.88-14,8.11-18.84.14-.56.65-2.28.44-2.66-.2-.35-1.96-1.87-2.43-2.31-1-.93-2.11-1.77-3.01-2.84-2.86-3.43-1.64-6.25.55-9.56,1.74-2.63,4.04-5.01,5.83-7.62s3.81-7.36,6.72-8.76c1.43-.69,3.27-.84,4.8-1.37,2.67-.93,4.74-2.61,7.75-2.96,4.23-.49,10.87-.74,14.96.36,3.57.96,8.96,4.76,11.78,7.23,2.03,1.77,1.6,2.83,1.82,5.25.06.67.44,1.37.29,2.12-.26.3-2.16-1.18-2.07-1.74-.87-.12-.25.68.03,1.01,1.24,1.47,8.81,3.91,11.09,4.95.49.22,1.04.42,1.44.79l-2.52.46c-.89.28-2.51,1.7-2.57,2.61-.02.26.12.79.36.77.12,0,1.13-1.52,1.52-1.84,2.33-1.87,7.47-1.6,9.25.89.79,1.11.94,3.1.02,4.16-.25.29-.72.42-.91.67-.36.49-.47,3.28-.65,4.21-.79,4.04-2.6,9.17-6.55,11,.17,1.93,0,3.13-1.25,4.62-1.49,1.79-3.67,2.9-5.96,1.89-2.13-.93-4.79-4.77-6.85-4.81-.27,0-1.63.24-1.95.32-5.44,1.35-9.19,7.17-9.71,12.5s-.39,10.32-1.73,15.68c-1.12,4.49-2.87,7.43-2.49,12.34.37,4.77,1.62,9.58,2.18,14.36,1.08,9.17.94,17.02-2.04,25.87-1.63,4.85-4.71,9.44-4.96,14.59-.05.96.14,1.98.09,2.94-.35,6.85-1.69,13.68-1.93,20.52-.29,8.02.6,15.69,1.31,23.61.23,2.59.02,3.82-.06,6.29-.17,5.5,1.91,11.23,4.22,16.14.34.72,1.71,3.72,2.06,4.07.43.42,2.41.1,3.16.13.86.03,2.3.08,3.1.2,2.27.33,5.18,3.6,6.05,5.64.35.82,1.08,3.3.45,3.93-.4.22-.84.42-1.28.54-5.19,1.43-13.96,1.19-18.94-.96l-10.23-1.81,1.38,2.13c.78,1.78,1.39,3.69,1.28,5.65-1.14.54-2.4.84-3.65,1.03-5.74.87-10.79.29-16.35-1.03M47.43,232.48,68.07,227.77l-3.93-6.55c-3.11-6.98-4.5-14.54-7.63-21.56-.66-1.49-2.58-4.47-2.53-5.9.01-.4.16-.88.31-1.25.53-1.31,2.99-3.23,4.04-4.5,4.33-5.2,7.6-12.74,9.95-19.07.08-.22.41-1.01.31-1.13-1.67,1.11-3.04,2.61-4.51,3.95-10.89,9.91-20.42,18.96-23.44,34.12-.69,3.46-1.66,11.23-.36,14.36.78,1.88,2.37.88,4.04,1.52,1.96.75.86,3.43,1.51,5.39M163.61,227.16c-.57-1.61-1.25-3.17-1.65-4.85-.83-3.48-.49-4.36-2.48-7.56-.97-1.56-.4-3.58-.62-5.36-.15-1.17-.8-1.71-1.64-2.43-.74-.63-2.13-1.2-2.31-2.19-.31-1.75,1.09-4.02,1.58-5.72,1.52-5.28-.14-9.61-.57-14.78-.28-3.28-.22-6.62-.48-9.9-.56-7.14-2.62-14.24-3.94-21.29-.31-1.68-.44-3.42-.83-5.09-5.14-2.66-10.35-5.22-15.37-8.12-5.8-3.35-11.5-7.51-17.39-10.56-3.46-1.79-7.1-3.07-10.95-3.72-.31.17.31.42.42.48.95.52,2,.93,2.97,1.49,1.68.98,3.29,2.15,4.53,3.66-1.21.15-2.29-.24-3.5-.14-1.48.13-3.45.81-4.54,1.83-2.68,2.51-3.96,9.53-5.11,13.13-3.95,12.34-10.96,26.24-20.73,34.94-3.53,3.15-7.98,5.41-10.39,9.66-4.14,7.32-3.99,17.18.21,24.45.93,1.61,2.6,3.93,4.68,3.87,1.4-.05,2.88-.48,4.47-.34M190,28.48c.15,1.24.07,2.76.11,4.05,0,.15-.41.83-.19,1.24.06.06.28-.13.33-.23.16-.33.64-2.81.68-3.3.41-4.64-1.73-7.44-2.53-11.64-.41-2.18-.3-5.02.58-7.09.72-1.69,2.72-3.38,4.28-4.28-.14-.27-.63,0-.86.07-5.56,1.44-6.96,5.26-5.77,10.63.79,3.58,2.94,6.92,3.37,10.55ZM210.03,11.62c-.23-3.01-3.14-4.82-5.98-4.79l3.78,2.37,2.2,2.42ZM216.49,9.2c-.69-.06-.83.96-.86,1.48-.07,1.22.35,1.95.76,3.02.29-.04.4-.31.43-.57.18-1.33-.38-2.61-.33-3.93ZM206.19,11.05c-2.52-.16-3.85.29-5.2,2.41-.14.22-.72.95-.55,1.12l5.76-3.53ZM208.37,16.85c-.82.19-1.44.76-2.34.75-1.08,0-2.04-.88-3.07-1.06-.08.43.23.53.49.76,1.84,1.58,3.51,1.68,4.92-.45ZM207.6,21.6c-1-.02-1.67.46-2.71.19-1.25-.32-1.8-1.58-2.75-2.3.71,2.63,2.03,3.79,4.72,2.61.24-.1.78-.21.74-.51ZM204.14,43.75l-.28-1.67-.03-5.52c-1.61,1.21-1.61,2.68-1.24,4.54l1.54,2.65ZM185.45,51.9c-.08-.43-.48-.36-.77-.45-2.95-.91-5.44-1.63-7.34-4.29-1.56-2.19-1.87-4.92-2.91-7.34l.52,4.54c.64,2.54,1.87,5.06,4.18,6.46.34.21,2.39,1.19,2.61,1.18l3.71-.1ZM178.01,76.41l-5.24-12.63-3.7-10.09c1.26,7.19,4.25,13.91,7.56,20.36l1.38,2.36ZM187.04,85.85c-.09-3.54.85-7.18,1.96-10.52,1.68-5.06,4.17-9.83,6.63-14.54l3.19-5.19c-2.25,2.16-4.47,4.53-6.34,7.04-5.18,6.96-6.98,13.55-5.91,22.2.02.2.16,1.06.46,1.02ZM174.49,79.43c-3.77-3.5-6.36-7.55-8.98-11.92-.15-.25-.24-.61-.58-.66.59,2.51,1.45,4.82,3.02,6.88,1.37,1.81,3.13,3.14,4.83,4.62l1.72,1.08ZM150.62,128.92c.7-.28.35-1.11.42-1.68.67-5.12.76-8.36.29-13.52-.08-.86,0-1.74-.07-2.59l-.37,2.39c-.16,4.57-.09,9.16-.33,13.72-.03.56.07,1.13.05,1.69ZM178.21,142.36l-.12-.44c-2.64,1.04-5.07,1.92-6.87,4.23-1.5,1.92-1.88,4.35-2.16,6.72-1.33,11.1-1.04,22.65-.01,33.75.21,2.23.7,4.51.87,6.72.37,4.95-.41,9.99.68,14.78,1.02,4.49,3.17,8.59,4.81,12.85l16.23,1.84c-.26-1.07-.78-2.07-1.1-3.12-.54-1.75-.82-4.84-2.3-5.9-.3-.22-.69-.29-1.02-.54-2.57-1.91-.89-5.03-2.01-7.36-.9-1.87-4.51-2.69-4.72-4.29-.14-1.12.94-3.93,1.16-5.25.81-4.98-.56-12.39-1.6-17.4-1.9-9.11-5.11-19.26-5.9-28.47-.16-1.91-.2-3.28.81-4.95.72-1.2,2.03-2.54,3.26-3.16Z"/>
            <path class="cls-3" d="M150.62,90.24c.02-.56-.08-1.14-.05-1.69.24-4.56.16-9.15.33-13.72l.37-2.39c.07.86-.01,1.74.07,2.59.47,5.16.38,8.41-.29,13.52-.07.57.28,1.4-.42,1.68Z"/>
          </g>
        </g>
      </g>
    </g>
  </g>
  <g>
    <path class="cls-2" d="M5.49,48.14c-2.58-1.68-4.41-3.96-5.49-6.84l8.65-5.03c.68,1.55,1.55,2.66,2.6,3.33,1.05.67,2.43,1,4.17,1,1.08,0,1.94-.24,2.57-.73.63-.49.95-.98.95-1.49,0-.47-.14-.87-.41-1.19-.27-.32-.84-.67-1.7-1.03-.87-.36-2.24-.79-4.11-1.3-7.43-2.06-11.14-6.08-11.14-12.06,0-2.34.59-4.39,1.78-6.14,1.19-1.75,2.75-3.08,4.68-4,1.93-.92,4.01-1.38,6.25-1.38,3.1,0,5.84.73,8.22,2.19s4.25,3.58,5.63,6.36l-8.82,5.14c-.61-1.3-1.32-2.21-2.11-2.73-.79-.52-1.77-.78-2.92-.78-.54,0-1.08.13-1.62.38-.54.25-.81.58-.81.97,0,.43.08.78.24,1.05.16.27.61.6,1.35,1,.74.4,1.94.85,3.6,1.35,3.61,1.08,6.54,2.59,8.79,4.52,2.25,1.93,3.38,4.7,3.38,8.3,0,2.38-.62,4.44-1.87,6.19-1.24,1.75-2.93,3.09-5.06,4.03-2.13.94-4.51,1.41-7.14,1.41-3.86,0-7.08-.84-9.66-2.52Z"/>
    <path class="cls-2" d="M30.75,21.34c1.75-2.99,4.12-5.36,7.11-7.11,2.99-1.75,6.26-2.62,9.79-2.62s7,.94,10.06,2.81c3.06,1.88,5.45,4.36,7.14,7.46l-9.03,4.87c-.79-1.48-1.92-2.66-3.38-3.54-1.46-.88-3.06-1.33-4.79-1.33s-3.2.42-4.62,1.24c-1.43.83-2.55,1.96-3.38,3.38-.83,1.43-1.24,2.97-1.24,4.63s.41,3.2,1.24,4.62c.83,1.43,1.96,2.55,3.38,3.38,1.42.83,2.97,1.24,4.62,1.24,1.77,0,3.39-.46,4.87-1.38,1.48-.92,2.6-2.15,3.35-3.71l9.09,4.92c-1.66,3.17-4.04,5.71-7.14,7.6-3.1,1.89-6.49,2.84-10.17,2.84s-6.8-.87-9.79-2.62c-2.99-1.75-5.36-4.12-7.11-7.11-1.75-2.99-2.62-6.26-2.62-9.79s.87-6.8,2.62-9.79Z"/>
    <path class="cls-2" d="M73.35,48.03c-2.99-1.75-5.36-4.12-7.11-7.11-1.75-2.99-2.62-6.26-2.62-9.79s.87-6.8,2.62-9.79c1.75-2.99,4.12-5.36,7.11-7.11,2.99-1.75,6.26-2.62,9.79-2.62s6.8.88,9.79,2.62c2.99,1.75,5.36,4.12,7.11,7.11,1.75,2.99,2.62,6.26,2.62,9.79s-.87,6.8-2.62,9.79c-1.75,2.99-4.12,5.36-7.11,7.11-2.99,1.75-6.26,2.62-9.79,2.62s-6.8-.87-9.79-2.62ZM87.77,39.13c1.42-.83,2.55-1.96,3.38-3.38.83-1.42,1.24-2.97,1.24-4.62s-.41-3.2-1.24-4.63c-.83-1.42-1.96-2.55-3.38-3.38-1.43-.83-2.97-1.24-4.63-1.24s-3.2.42-4.63,1.24c-1.43.83-2.55,1.96-3.38,3.38-.83,1.43-1.24,2.97-1.24,4.63s.41,3.2,1.24,4.62c.83,1.43,1.96,2.55,3.38,3.38,1.42.83,2.97,1.24,4.63,1.24s3.2-.41,4.63-1.24Z"/>
    <path class="cls-2" d="M123.76,12.03h10.28v25.1c0,2.63-.69,4.98-2.06,7.03-1.37,2.06-3.23,3.65-5.57,4.79-2.34,1.14-4.9,1.7-7.68,1.7s-5.33-.57-7.65-1.7-4.17-2.73-5.54-4.79c-1.37-2.06-2.06-4.4-2.06-7.03V12.03h10.28v25.1c0,1.08.53,1.9,1.6,2.46,1.06.56,2.19.84,3.38.84,1.41,0,2.6-.27,3.57-.81.97-.54,1.46-1.37,1.46-2.49V12.03Z"/>
    <path class="cls-2" d="M163.47,12.03v9.74h-9.2v28.13h-10.28v-28.13h-9.14v-9.74h28.62Z"/>
  </g>
</svg>
