<?xml version="1.0" encoding="UTF-8"?>
<svg id="Layer_1" xmlns="http://www.w3.org/2000/svg" version="1.1" viewBox="0 0 700 700">
  <!-- Generator: Adobe Illustrator 30.0.0, SVG Export Plug-In . SVG Version: 2.1.1 Build 123)  -->
  <defs>
    <style>
      .st0 {
        fill: #f45800;
        stroke: #f45800;
        stroke-width: 8px;
      }

      .st1 {
        fill: #fff;
      }
    </style>
  </defs>
  <rect y="0" width="700" height="700"/>
  <path class="st0" d="M0,0v700h700V0H0Z" vector-effect="non-scaling-stroke"/>
  <path class="st1" d="M263,138v197.2s69.5,0,106.7-2.8c29.2-5.1,34.6-7.9,40-37.2l10.8-42.8h31.8l-5.4,93.6,2.8,95.9h-32.1l-7.9-37.4c-7.9-26.6-18.7-32.1-40-34.6-26.6-2.8-106.7-2.8-106.7-2.8v165.4c0,31.8,16.1,45.4,53.3,45.4h112c34.6,0,69.2-2.8,90.8-53.3l29-64.1h26.9c-2.8,13.3-16.1,130.8-18.7,157.2,0,0-101.3-2.6-143.9-2.6h-192.1l-114.6,2.6v-29l37.2-8.2c26.9-5.4,34.9-13.3,34.9-34.6,0,0,2.8-72,2.8-192.1s-2.8-191.8-2.8-191.8c0-23.9-7.9-29.2-34.9-34.6l-37.2-7.9v-29.2l112,2.3h213.3c42.6,0,114.3-7.7,114.3-7.7,0,0-2.6,45.1-5.4,151.8h-29.2l-10.8-37.4c-10.5-48-26.4-71.8-55.9-71.8h-167.7c-13.6,0-13.6,2.6-13.6,10.8h0Z"/>
</svg>