<svg version="1.1" id="Layer_1" xmlns:x="ns_extend;" xmlns:i="ns_ai;" xmlns:graph="ns_graphs;" xmlns="http://www.w3.org/2000/svg" xmlns:xlink="http://www.w3.org/1999/xlink" x="0px" y="0px" viewBox="0 0 42.5 50" style="enable-background:new 0 0 42.5 50;" xml:space="preserve">
 <style type="text/css">
  .st0{fill-rule:evenodd;clip-rule:evenodd;fill:#175CFF;}
 </style>
 <metadata>
  <sfw xmlns="ns_sfw;">
   <slices>
   </slices>
   <sliceSourceBounds bottomLeftOrigin="true" height="50" width="42.5" x="-147.8" y="0">
   </sliceSourceBounds>
  </sfw>
 </metadata>
 <desc>
  Created with Sketch.
 </desc>
 <g id="_x30_2-Branding_x2F_Logo_x5F_Color">
  <g id="Group-16">
   <path id="Fill-12" class="st0" d="M6.1,22.8v11.5l15.2,9.2l15.2-9.2V19.2l-13,7.8c-1.4,0.9-3.1,0.9-4.5,0L1.4,16.4
			c-1.9-1.1-1.9-4,0-5.1L19,0.6c1.4-0.9,3.1-0.9,4.5,0l13,7.8l-6,3.6l-9.2-5.6l-4.3,2.6l-7.8,4.7l4.1,2.5l8,4.9l16.4-9.9
			c0.9-0.5,2.2-0.5,3.1,0c1,0.5,1.8,1.6,1.8,2.9v21c0,1.6-0.8,3.1-2.2,3.9L23.5,49.4c-1.4,0.9-3.1,0.9-4.5,0L2.2,39.2
			C0.8,38.3,0,36.9,0,35.3V32V19.2L6.1,22.8z">
   </path>
  </g>
 </g>
</svg>